<svg enable-background="new 0 0 512 512" height="512" viewBox="0 0 512 512" width="512" xmlns="http://www.w3.org/2000/svg"><g fill="#d82881"><path d="m352 0h-192c-88.352 0-160 71.648-160 160v192c0 88.352 71.648 160 160 160h192c88.352 0 160-71.648 160-160v-192c0-88.352-71.648-160-160-160zm112 352c0 61.76-50.24 112-112 112h-192c-61.76 0-112-50.24-112-112v-192c0-61.76 50.24-112 112-112h192c61.76 0 112 50.24 112 112z"/><path d="m256 128c-70.688 0-128 57.312-128 128s57.312 128 128 128 128-57.312 128-128-57.312-128-128-128zm0 208c-44.096 0-80-35.904-80-80 0-44.128 35.904-80 80-80s80 35.872 80 80c0 44.096-35.904 80-80 80z"/><circle cx="393.6" cy="118.4" r="17.056"/></g></svg>