<svg enable-background="new 0 0 96.124 96.123" height="512" viewBox="0 0 96.124 96.123" width="512" xmlns="http://www.w3.org/2000/svg"><path d="m72.089.02-12.465-.02c-14.004 0-23.054 9.285-23.054 23.656v10.907h-12.533c-1.083 0-1.96.878-1.96 1.961v15.803c0 1.083.878 1.96 1.96 1.96h12.533v39.876c0 1.083.877 1.96 1.96 1.96h16.352c1.083 0 1.96-.878 1.96-1.96v-39.876h14.654c1.083 0 1.96-.877 1.96-1.96l.006-15.803c0-.52-.207-1.018-.574-1.386s-.867-.575-1.387-.575h-14.659v-9.246c0-4.444 1.059-6.7 6.848-6.7l8.397-.003c1.082 0 1.959-.878 1.959-1.96v-14.674c0-1.081-.876-1.958-1.957-1.96z" fill="#d82881"/></svg>